<svg width="18" height="18" viewBox="0 0 18 18" fill="none" xmlns="http://www.w3.org/2000/svg">
<path d="M8 0V2H10V0H8Z" fill="#12AFBD"/>
<path d="M8 18V16H10V18H8Z" fill="#12AFBD"/>
<path d="M16 8H18V10H16V8Z" fill="#12AFBD"/>
<path d="M0 8H2V10H0V8Z" fill="#12AFBD"/>
<path d="M14.6571 13.2425L16.0713 14.6567L14.6571 16.071L13.2429 14.6567L14.6571 13.2425Z" fill="#12AFBD"/>
<path d="M3.34311 1.92905L4.75732 3.34326L3.34311 4.75747L1.9289 3.34326L3.34311 1.92905Z" fill="#12AFBD"/>
<path d="M4.75748 14.6566L3.34326 16.0708L1.92905 14.6566L3.34326 13.2424L4.75748 14.6566Z" fill="#12AFBD"/>
<path d="M16.071 3.34311L14.6567 4.75732L13.2425 3.34311L14.6567 1.9289L16.071 3.34311Z" fill="#12AFBD"/>
<path d="M9 14C11.7614 14 14 11.7614 14 9C14 6.23858 11.7614 4 9 4C6.23858 4 4 6.23858 4 9C4 11.7614 6.23858 14 9 14Z" fill="#12AFBD"/>
</svg>